<svg width="20" height="15" viewBox="0 0 20 15" fill="none" xmlns="http://www.w3.org/2000/svg">
<path d="M9.7291 5.35714L14.8796 9.64286M14.8796 5.35714L9.7291 9.64286M2.01142 9.17537L5.03108 12.4325C5.39421 12.8241 5.57577 13.02 5.80375 13.1612C6.00569 13.2861 6.23346 13.3793 6.47576 13.436C6.74929 13.5 7.04655 13.5 7.64105 13.5H15.7037C16.8575 13.5 17.4345 13.5 17.8751 13.3131C18.2628 13.1488 18.578 12.8865 18.7754 12.564C19 12.1973 19 11.7172 19 10.7571V4.24286C19 3.28277 19 2.80272 18.7754 2.43602C18.578 2.11345 18.2628 1.8512 17.8751 1.68685C17.4345 1.5 16.8575 1.5 15.7037 1.5H7.64105C7.04655 1.5 6.74929 1.5 6.47576 1.564C6.23346 1.62069 6.00569 1.71386 5.80375 1.83886C5.57577 1.97998 5.39421 2.17582 5.03108 2.56751L2.01142 5.82463C1.45558 6.4242 1.17766 6.72403 1.07075 7.05463C0.976416 7.34631 0.976416 7.65369 1.07075 7.94537C1.17766 8.27597 1.45558 8.5758 2.01142 9.17537Z" stroke="white" stroke-width="1.8" stroke-linecap="round" stroke-linejoin="round"/>
</svg>
