<svg width="12" height="13" viewBox="0 0 12 13" fill="none" xmlns="http://www.w3.org/2000/svg">
<path d="M11.999 6.49951C11.999 6.76968 11.8945 7.0288 11.7084 7.21984C11.5223 7.41089 11.2699 7.51821 11.0067 7.51821H1.02328C0.890425 7.52247 0.75809 7.49928 0.634132 7.45002C0.510173 7.40076 0.397117 7.32644 0.301674 7.23147C0.206232 7.1365 0.130347 7.02282 0.0785254 6.89716C0.0267034 6.77151 0 6.63645 0 6.5C0 6.36355 0.0267034 6.22849 0.0785254 6.10284C0.130347 5.97718 0.206232 5.8635 0.301674 5.76853C0.397117 5.67356 0.510173 5.59924 0.634132 5.54998C0.75809 5.50073 0.890425 5.47753 1.02328 5.48179H11.0086C11.2716 5.48205 11.5238 5.58949 11.7097 5.78051C11.8956 5.97152 12 6.23049 12 6.50049L11.999 6.49951ZM4.59869 1.95389C4.59869 1.66634 4.68175 1.38524 4.83738 1.14615C4.993 0.90706 5.21419 0.720712 5.47299 0.610671C5.73178 0.50063 6.01655 0.471838 6.29128 0.527937C6.56601 0.584035 6.81837 0.722504 7.01644 0.925834C7.21452 1.12916 7.3494 1.38822 7.40405 1.67025C7.4587 1.95227 7.43065 2.2446 7.32346 2.51026C7.21626 2.77593 7.03473 3.00299 6.80182 3.16275C6.56892 3.3225 6.29509 3.40777 6.01498 3.40777C5.63935 3.40777 5.27912 3.2546 5.01351 2.98194C4.7479 2.70928 4.59869 2.33948 4.59869 1.95389ZM7.43127 11.0461C7.43127 11.3337 7.3482 11.6148 7.19258 11.8538C7.03695 12.0929 6.81576 12.2793 6.55697 12.3893C6.29817 12.4994 6.01341 12.5282 5.73867 12.4721C5.46394 12.416 5.21158 12.2775 5.01351 12.0742C4.81544 11.8708 4.68055 11.6118 4.6259 11.3298C4.57125 11.0477 4.5993 10.7554 4.7065 10.4897C4.81369 10.2241 4.99522 9.99701 5.22813 9.83725C5.46104 9.6775 5.73486 9.59223 6.01498 9.59223C6.3906 9.59223 6.75084 9.7454 7.01644 10.0181C7.28205 10.2907 7.43127 10.6605 7.43127 11.0461Z" fill="white"/>
</svg>
