<svg width="12" height="11" viewBox="0 0 12 11" fill="none" xmlns="http://www.w3.org/2000/svg">
<path d="M11.14 9.2298C11.3116 9.4154 11.4047 9.6602 11.3998 9.91291C11.3949 10.1656 11.2923 10.4066 11.1137 10.5854C10.935 10.7642 10.6941 10.8669 10.4414 10.872C10.1887 10.8771 9.94381 10.7841 9.7581 10.6127L6.02735 6.88193L2.29659 10.6127C2.20717 10.7094 2.09914 10.7871 1.97897 10.841C1.8588 10.895 1.72897 10.9241 1.59727 10.9267C1.46557 10.9292 1.3347 10.9052 1.21253 10.8559C1.09035 10.8067 0.979382 10.7333 0.886269 10.6401C0.793156 10.5469 0.71982 10.4359 0.670658 10.3137C0.621497 10.1915 0.597523 10.0606 0.600174 9.92891C0.602825 9.79721 0.632046 9.6674 0.686085 9.54727C0.740125 9.42714 0.817869 9.31915 0.914656 9.2298L4.64541 5.49905L0.914656 1.77019C0.817869 1.68084 0.740125 1.57286 0.686085 1.45273C0.632046 1.33259 0.602825 1.20279 0.600174 1.07109C0.597523 0.939385 0.621497 0.808506 0.670658 0.686297C0.71982 0.564088 0.793156 0.453065 0.886269 0.359889C0.979382 0.266712 1.09035 0.193299 1.21253 0.144054C1.3347 0.0948086 1.46557 0.0707446 1.59727 0.0733049C1.72897 0.0758653 1.8588 0.104997 1.97897 0.158954C2.09914 0.212911 2.20717 0.290581 2.29659 0.387307L6.02735 4.11711L9.7581 0.386357C9.94381 0.214904 10.1887 0.121985 10.4414 0.127071C10.6941 0.132158 10.935 0.234855 11.1137 0.413642C11.2923 0.592429 11.3949 0.833428 11.3998 1.08614C11.4047 1.33884 11.3116 1.58365 11.14 1.76924L7.40928 5.49905L11.14 9.2298Z" fill="white"/>
</svg>
